<svg xmlns="http://www.w3.org/2000/svg" xmlns:xlink="http://www.w3.org/1999/xlink" width="1024" zoomAndPan="magnify" viewBox="0 0 768 767.999994" height="1024" preserveAspectRatio="xMidYMid meet" version="1.0"><rect x="-76.8" width="921.6" fill="#ffffff" y="-76.799999" height="921.599993" fill-opacity="1"/><rect x="-76.8" width="921.6" fill="#000000" y="-76.799999" height="921.599993" fill-opacity="1"/><path fill="#ffffff" d="M 765.660156 357.964844 L 756.671875 332.636719 C 751.769531 318.742188 736.242188 307.304688 722.351562 307.304688 L 690.484375 307.304688 C 666.785156 241.117188 638.1875 161.035156 629.199219 142.242188 C 616.125 112.824219 574.449219 99.75 551.570312 93.214844 C 551.570312 93.214844 513.164062 78.503906 384.871094 78.503906 C 256.582031 78.503906 218.992188 93.214844 218.992188 93.214844 C 192.027344 102.203125 154.441406 115.277344 139.730469 143.058594 C 132.375 156.949219 102.960938 238.664062 79.261719 307.304688 L 48.210938 307.304688 C 34.320312 307.304688 18.792969 318.742188 13.890625 332.636719 L 4.902344 357.964844 C 0 371.859375 7.355469 383.296875 21.246094 383.296875 L 53.113281 383.296875 C 49.027344 394.738281 46.578125 401.273438 46.578125 401.273438 C 44.125 405.359375 42.492188 424.15625 42.492188 429.875 L 42.492188 661.125 C 42.492188 675.835938 54.75 688.089844 69.457031 688.089844 L 167.515625 688.089844 C 182.222656 688.089844 194.480469 675.835938 194.480469 661.125 L 194.480469 612.097656 L 576.082031 612.097656 L 576.082031 661.125 C 576.082031 675.835938 588.339844 688.089844 603.050781 688.089844 L 701.921875 688.089844 C 716.632812 688.089844 728.890625 675.835938 728.890625 661.125 L 728.890625 429.875 C 728.890625 424.972656 727.253906 405.359375 724.804688 401.273438 C 724.804688 401.273438 722.351562 394.738281 718.265625 383.296875 L 749.316406 383.296875 C 762.390625 383.296875 769.746094 371.859375 765.660156 357.964844 Z M 194.480469 500.148438 L 161.792969 478.085938 C 101.324219 473.183594 93.972656 494.429688 80.898438 471.550781 L 80.898438 443.765625 C 80.898438 416.800781 96.421875 415.984375 113.582031 415.984375 C 129.925781 415.984375 162.609375 429.875 184.671875 439.679688 C 208.371094 450.304688 225.53125 441.316406 234.519531 476.453125 C 233.703125 492.792969 224.714844 500.148438 194.480469 500.148438 Z M 137.28125 317.925781 C 157.707031 234.578125 192.027344 176.5625 196.929688 162.671875 C 200.199219 152.863281 192.027344 134.886719 385.691406 134.886719 C 579.351562 134.886719 568.730469 161.035156 569.546875 161.851562 C 578.535156 180.648438 614.488281 241.933594 633.285156 317.925781 C 633.285156 317.925781 560.558594 327.734375 394.679688 327.734375 C 228.800781 327.734375 137.28125 317.925781 137.28125 317.925781 Z M 536.859375 476.453125 C 575.265625 429.058594 563.007812 450.304688 586.707031 439.679688 C 607.953125 429.875 641.453125 415.984375 657.796875 415.984375 C 674.957031 415.984375 690.484375 416.800781 690.484375 443.765625 L 690.484375 471.550781 C 678.226562 493.613281 667.601562 474 606.316406 479.71875 L 576.082031 499.332031 C 545.851562 500.148438 526.238281 488.710938 536.859375 476.453125 Z M 536.859375 476.453125 " fill-opacity="1" fill-rule="nonzero"/></svg>